<?xml version="1.0" encoding="utf-8"?>
<!-- Generator: Adobe Illustrator 22.0.1, SVG Export Plug-In . SVG Version: 6.00 Build 0)  -->
<svg viewBox="108.663 139.637 318.6 318.6" xmlns="http://www.w3.org/2000/svg">
  <defs></defs>
  <g transform="matrix(1.062, 0, 0, 1.062, 2.462991, 33.436993)">
    <rect x="100" y="100" width="300" height="300" style="fill: rgb(116, 71, 255); paint-order: fill;"></rect>
    <path d="M 247.974 226.701 L 313.204 226.701 C 324.25 226.701 333.204 235.655 333.204 246.701 L 333.204 253.031 C 333.204 264.077 324.25 273.031 313.204 273.031 L 247.974 273.031 C 236.928 273.031 227.974 264.077 227.974 253.031 L 227.974 246.701 C 227.974 235.655 236.928 226.701 247.974 226.701 Z M 165.615 244.489 L 165.615 201.122 C 165.615 181.24 181.733 165.122 201.615 165.122 L 325.84 165.122 C 330.258 165.122 333.84 168.704 333.84 173.122 C 333.84 184.873 334.385 179.924 334.385 189.304 C 334.385 218.37 306.623 214.395 284.749 214.395 C 272.656 214.395 245.73 214.685 245.73 214.685 C 229.226 214.685 215.731 228.01 215.731 244.489 C 215.731 250.251 215.77 256.871 215.77 256.871 C 216.579 272.717 229.683 285.315 245.73 285.315 C 245.73 285.315 272.656 285.605 284.749 285.605 C 306.623 285.605 334.385 281.63 334.385 310.696 C 334.385 320.076 333.84 315.127 333.84 326.878 C 333.84 331.296 330.258 334.878 325.84 334.878 L 201.615 334.878 C 181.733 334.878 165.615 318.76 165.615 298.878 C 165.615 293.54 165.615 244.489 165.615 244.489 Z" style="fill: rgb(255, 255, 255);"></path>
  </g>
</svg>
